# Blender 4.4.0
# www.blender.org
o Icosphere
v -1.230723 -0.378296 0.093456
v -0.069388 1.016798 0.113384
v 0.695996 -0.881807 -0.292333
v -0.751623 -1.009675 0.028948
v 1.343977 0.137691 0.371308
v 0.683053 0.087375 -0.358626
v 1.021211 0.525085 0.065598
v 0.535024 0.049320 1.160939
v -0.386189 -0.642279 0.899060
v -1.006410 -0.490186 0.546445
v -0.491958 0.197598 0.454125
v -0.750001 -0.419480 -0.839166
v -1.125864 0.268505 -0.721626
v -0.030631 -0.138651 -1.019108
v 0.308801 0.147658 -0.905205
v 0.118651 0.902053 -0.089923
v -1.050581 0.570645 0.056670
v -0.394223 0.879462 -0.635178
v -1.071342 0.647803 -0.246914
v 0.155318 0.765409 0.633798
v -0.674948 0.409003 -1.001073
v 0.980161 0.518940 0.815782
v 1.267169 -0.165238 0.849725
v 1.136780 0.596892 0.461435
v 0.387840 -0.619646 -0.801404
v -1.087727 -0.511634 -0.430229
v -0.331561 -0.300305 0.898512
v 0.889925 -0.517750 0.984953
v 1.066376 -0.512388 -0.180057
v 1.179832 -0.656994 0.168915
v -0.117815 -1.114690 0.340610
v -0.300844 -0.950465 0.724401
vn 0.7031 -0.6162 0.3549
vn -0.0490 -0.4469 -0.8932
vn -0.5216 0.6947 -0.4952
vn 0.5161 0.6853 -0.5138
vn 0.3460 0.5013 -0.7931
vn 0.6852 0.6073 -0.4022
vn 0.2590 0.9238 -0.2819
vn -0.5224 0.6954 -0.4934
vn -0.3371 0.9411 -0.0264
vn -0.4127 0.8757 0.2508
vn -0.4504 0.2414 0.8596
vn -0.3763 0.7602 0.5297
vn -0.5739 0.4346 0.6941
vn 0.2176 0.9124 0.3468
vn 0.3683 0.9131 -0.1747
vn 0.4106 0.8686 -0.2774
vn 0.2122 0.9305 0.2985
vn 0.7891 0.3551 -0.5012
vn 0.1493 0.2075 -0.9668
vn 0.2176 0.5150 -0.8291
vn -0.1747 -0.1736 -0.9692
vn -0.9885 0.1511 -0.0072
vn -0.9751 0.1896 0.1149
vn -0.3544 0.3798 0.8545
vn -0.3082 0.0507 0.9500
vn -0.4077 0.3912 0.8251
vn 0.3782 -0.0502 0.9244
vn -0.0006 0.5926 0.8055
vn 0.4365 0.2263 0.8708
vn 0.8190 0.3655 0.4424
vn 0.8781 0.3278 0.3485
vn 0.8367 0.4412 -0.3243
vn 0.6776 -0.0296 -0.7348
vn 0.3809 -0.0853 -0.9207
vn -0.4947 -0.1233 -0.8603
vn -0.7094 -0.2768 -0.6482
vn -0.9642 -0.1328 -0.2295
vn -0.8626 0.1820 0.4721
vn -0.5083 0.4765 0.7173
vn -0.4783 0.0778 0.8748
vn 0.1026 -0.4688 0.8773
vn -0.0809 -0.3413 0.9365
vn 0.9777 -0.2083 0.0251
vn 0.7801 0.1761 -0.6004
vn 0.6543 0.2011 -0.7290
vn 0.9323 -0.1044 -0.3463
vn 0.6400 -0.4530 -0.6207
vn -0.0703 -0.9035 -0.4228
vn -0.1407 -0.8841 -0.4456
vn 0.1380 -0.8192 -0.5567
vn -0.4149 -0.7521 -0.5121
vn -0.7981 -0.5989 -0.0654
vn -0.7640 -0.6031 0.2293
vn -0.2813 -0.9234 0.2610
vn -0.5671 -0.7040 0.4275
vn -0.5141 -0.5262 0.6773
vn 0.6939 -0.5570 -0.4564
vn 0.3520 -0.8939 0.2776
vn 0.3424 -0.9346 0.0964
vn 0.2098 -0.8587 0.4675
vt 0.241070 0.174665
vt 0.341642 0.167504
vt 0.282428 0.219390
vt 0.532140 0.152884
vt 0.700741 0.176820
vt 0.592593 0.216024
vt 0.741114 0.267409
vt 0.787194 0.314964
vt 0.758726 0.369400
vt 0.541375 0.261171
vt 0.657019 0.363077
vt 0.602700 0.414073
vt 0.370267 0.321900
vt 0.445537 0.277897
vt 0.442734 0.401952
vt 0.646860 0.454202
vt 0.669425 0.280539
vt 0.813288 0.445042
vt 0.834069 0.310382
vt 0.930117 0.278502
vt 0.886364 0.354286
vt 0.045455 0.393651
vt 0.156277 0.361549
vt 0.094952 0.446517
vt 0.036072 0.286951
vt 0.075917 0.218251
vt 0.305702 0.303868
vt 0.263027 0.445963
vt 0.304094 0.418054
vt 0.359608 0.321900
vt 0.260162 0.293156
vt 0.403817 0.183577
vt 0.824652 0.192867
vt 0.885368 0.177891
vt 0.101824 0.146636
vt 0.193287 0.246820
vt 0.326552 0.250688
vt 0.762234 0.175637
vt 0.960509 0.198086
vt 0.974452 0.142596
vt 0.140934 0.086644
vt 0.484821 0.105022
vt 0.538427 0.028689
vt 0.613637 0.118096
vt 0.722505 0.008258
vt 0.771911 0.094309
vt 0.865080 0.084333
vt 0.917357 0.049919
vt 0.944056 0.096899
vt 0.397365 0.105022
vt 0.275782 0.152171
vt 0.343581 0.043690
vt 0.168210 0.048063
s 0
f 28/1/1 30/2/1 23/3/1
f 25/4/2 12/5/2 14/6/2
f 13/7/3 19/8/3 18/9/3
f 15/10/4 18/11/4 16/12/4
f 7/13/5 6/14/5 16/15/5
f 6/14/6 15/10/6 16/15/6
f 16/12/7 18/11/7 2/16/7
f 21/17/8 13/7/8 18/11/8
f 18/9/9 19/8/9 2/18/9
f 19/8/10 17/19/10 2/18/10
f 17/19/11 11/20/11 20/21/11
f 17/22/12 20/23/12 2/24/12
f 11/25/13 27/26/13 20/23/13
f 20/23/14 24/27/14 2/28/14
f 2/28/15 24/27/15 16/29/15
f 24/27/16 7/30/16 16/29/16
f 20/23/17 22/31/17 24/27/17
f 29/32/18 15/10/18 6/14/18
f 14/6/19 21/17/19 15/10/19
f 15/10/20 21/17/20 18/11/20
f 12/5/21 21/17/21 14/6/21
f 13/7/22 1/33/22 19/8/22
f 1/33/23 17/19/23 19/8/23
f 10/34/24 11/20/24 17/19/24
f 9/35/25 8/36/25 27/26/25
f 27/26/26 8/36/26 20/23/26
f 28/1/27 23/3/27 8/36/27
f 8/36/28 22/31/28 20/23/28
f 8/36/29 23/3/29 22/31/29
f 23/3/30 24/27/30 22/31/30
f 23/3/31 5/37/31 24/27/31
f 5/37/32 7/30/32 24/27/32
f 29/32/33 25/4/33 15/10/33
f 25/4/34 14/6/34 15/10/34
f 21/17/35 12/5/35 13/7/35
f 12/5/36 26/38/36 13/7/36
f 26/38/37 1/33/37 13/7/37
f 1/33/38 10/34/38 17/19/38
f 10/34/39 27/39/39 11/20/39
f 10/34/40 9/40/40 27/39/40
f 9/35/41 32/41/41 8/36/41
f 8/36/42 32/41/42 28/1/42
f 23/3/43 30/2/43 5/37/43
f 5/37/44 29/32/44 7/30/44
f 29/32/45 6/14/45 7/30/45
f 5/37/46 30/2/46 29/32/46
f 3/42/47 25/4/47 29/32/47
f 3/42/48 31/43/48 25/4/48
f 31/43/49 12/44/49 25/4/49
f 31/45/50 4/46/50 12/5/50
f 4/46/51 26/38/51 12/5/51
f 4/46/52 1/33/52 26/38/52
f 4/47/53 10/34/53 1/33/53
f 31/48/54 32/49/54 4/47/54
f 4/47/55 32/49/55 10/34/55
f 32/49/56 9/40/56 10/34/56
f 30/2/57 3/50/57 29/32/57
f 28/51/58 31/52/58 30/2/58
f 30/2/59 31/52/59 3/50/59
f 31/53/60 28/1/60 32/41/60
